<svg id="Layer_1" viewBox="0 0 24 24" xmlns="http://www.w3.org/2000/svg" data-name="Layer 1"><path d="m19.5 4h-1.551c-.252-2.244-2.139-4-4.449-4h-3c-2.31 0-4.197 1.756-4.449 4h-1.551c-2.481 0-4.5 2.019-4.5 4.5v11c0 2.481 2.019 4.5 4.5 4.5h15c2.481 0 4.5-2.019 4.5-4.5v-11c0-2.481-2.019-4.5-4.5-4.5zm-9-3h3c1.76 0 3.221 1.306 3.464 3h-9.928c.243-1.694 1.704-3 3.464-3zm12.5 18.5c0 1.93-1.57 3.5-3.5 3.5h-15c-1.93 0-3.5-1.57-3.5-3.5v-11c0-1.93 1.57-3.5 3.5-3.5h15c1.93 0 3.5 1.57 3.5 3.5zm-7-3.126c0 1.448-1.178 2.626-2.626 2.626h-.874v1.5c0 .276-.224.5-.5.5s-.5-.224-.5-.5v-1.5h-.926c-.979 0-1.891-.526-2.381-1.375-.139-.238-.057-.545.182-.683.239-.141.545-.057.683.183.312.54.894.875 1.516.875h2.8c.896 0 1.626-.729 1.626-1.626 0-.803-.575-1.479-1.368-1.604l-3.423-.552c-1.28-.204-2.209-1.295-2.209-2.592 0-1.448 1.178-2.626 2.626-2.626h.874v-1.5c0-.276.224-.5.5-.5s.5.224.5.5v1.5h.926c.979 0 1.891.526 2.381 1.375.139.238.057.545-.182.683-.241.14-.546.056-.683-.183-.312-.54-.894-.875-1.516-.875h-2.8c-.896 0-1.626.729-1.626 1.626 0 .803.575 1.479 1.368 1.604l3.423.552c1.28.204 2.209 1.295 2.209 2.592z"/></svg>